<?xml version="1.0" standalone="no"?><!DOCTYPE svg PUBLIC "-//W3C//DTD SVG 1.1//EN" "http://www.w3.org/Graphics/SVG/1.1/DTD/svg11.dtd"><svg t="1568542005210" class="icon" viewBox="0 0 1024 1024" version="1.1" xmlns="http://www.w3.org/2000/svg" p-id="4775" xmlns:xlink="http://www.w3.org/1999/xlink" width="1000" height="1000"><defs><style type="text/css"></style></defs><path d="M832 64H192c-35.2 0-64 28.8-64 64v768c0 35.2 28.8 64 64 64h640c35.2 0 64-28.8 64-64V128c0-35.2-28.8-64-64-64z m-192 64v64h-256V128h256z m192 768H192V128h128v64c0 35.2 28.8 64 64 64h256c35.2 0 64-28.8 64-64V128h128v768z" p-id="4776"></path><path d="M352 416h256c19.2 0 32-12.8 32-32s-12.8-32-32-32h-256c-19.2 0-32 12.8-32 32s12.8 32 32 32zM672 544H352c-19.2 0-32 12.8-32 32s12.8 32 32 32h320c19.2 0 32-12.8 32-32s-12.8-32-32-32zM640 736h-288c-19.2 0-32 12.8-32 32s12.8 32 32 32h288c19.2 0 32-12.8 32-32s-12.8-32-32-32z" p-id="4777"></path></svg>