<?xml version="1.0" standalone="no"?><!DOCTYPE svg PUBLIC "-//W3C//DTD SVG 1.1//EN" "http://www.w3.org/Graphics/SVG/1.1/DTD/svg11.dtd"><svg t="1585555346662" class="icon" viewBox="0 0 1024 1024" version="1.1" xmlns="http://www.w3.org/2000/svg" p-id="5695" xmlns:xlink="http://www.w3.org/1999/xlink" width="200" height="200"><defs><style type="text/css"></style></defs><path d="M708.989769 404.961547m-295.358216 0a295.358216 295.358216 0 1 0 590.716433 0 295.358216 295.358216 0 1 0-590.716433 0Z" fill="#E9EAEB" p-id="5696"></path><path d="M629.659211 307.785225l-28.249771-68.2763L580.529175 231.200169l-49.491286 20.230015-18.712764-5.129754A232.50067 232.50067 0 0 0 475.116348 209.525153l-5.129754-18.712763 20.519015-49.563537-8.670006-20.880265-68.20405-28.611021-20.880265 8.670007-20.519015 49.563536-16.834263 9.609257a232.42842 232.42842 0 0 0-52.453538 0l-16.834262-9.681507-20.519015-49.491286-20.880266-8.670007-68.2763 28.249771-8.670006 20.880265 20.519015 49.491286-5.057504 19.146264a232.42842 232.42842 0 0 0-37.064277 37.136528l-18.712764 5.129753L77.813307 231.200169l-20.880265 8.670007L28.900021 307.785225l8.670007 20.880266 49.130036 20.519015 9.609257 16.834262a232.42842 232.42842 0 0 0 0 52.453538L86.700064 435.378819 37.353277 455.897834 28.900021 476.850349l28.249771 68.2763 20.880265 8.670007 49.491286-20.519015 18.712764 5.129753a232.42842 232.42842 0 0 0 37.136527 37.064277l5.129754 18.712764-20.519015 49.563536 8.453256 20.952516 68.2763 28.249771 20.880266-8.670007 20.519015-49.563536 16.834262-9.609257a232.57292 232.57292 0 0 0 52.453538 0l16.834263 9.609257 20.519015 49.491286 20.880265 8.670006L481.907853 664.700487l8.670006-20.880265-20.519015-49.491287 5.129754-18.712763a232.50067 232.50067 0 0 0 37.064277-37.353278l18.712764-5.129754 49.563536 20.519016 20.880265-8.670007L629.659211 476.850349 621.350455 455.897834l-49.852536-20.519015-9.609257-16.834262a232.42842 232.42842 0 0 0 0-52.453539l9.609257-16.834262 49.852536-20.591265z" fill="#A3D4FF" p-id="5697"></path><path d="M413.631553 708.700769a15.967262 15.967262 0 0 1-6.141255-1.228251l-20.880265-8.670006a15.967262 15.967262 0 0 1-8.670006-8.670007l-18.423764-44.506032-7.658505-4.407253a249.190433 249.190433 0 0 1-45.517534 0l-7.658505 4.407253-18.351514 44.578283a15.967262 15.967262 0 0 1-8.670006 8.670006l-20.880265 8.670006a15.967262 15.967262 0 0 1-12.210259 0L170.293375 679.150497a15.967262 15.967262 0 0 1-8.670007-8.670006l-8.670006-20.880265a15.967262 15.967262 0 0 1 0-12.210259l18.423764-44.506033-2.312002-8.525506a249.262683 249.262683 0 0 1-31.790023-32.006773l-8.525507-2.312002-44.506032 18.423763a15.967262 15.967262 0 0 1-12.210259 0L51.153037 559.93791a16.689762 16.689762 0 0 1-8.959006-8.742256l-28.249771-68.34855a15.967262 15.967262 0 0 1 0-12.210259l8.670007-20.880266a15.967262 15.967262 0 0 1 8.670006-8.597756l44.506033-18.423763 4.407253-7.658506a249.334933 249.334933 0 0 1 0-45.517533l-4.407253-7.658506-44.578283-18.496013a15.967262 15.967262 0 0 1-8.670006-8.597757l-8.670007-20.880265a15.967262 15.967262 0 0 1 0-12.210259l28.322021-68.2763A15.967262 15.967262 0 0 1 50.575037 224.769915l20.880265-8.670007a15.967262 15.967262 0 0 1 12.210259 0l44.506033 18.423764 9.103507-2.239752a249.262683 249.262683 0 0 1 32.151273-32.223523l2.312002-8.525507-18.423764-44.506032a15.967262 15.967262 0 0 1 0-12.210259l8.597757-20.880266a15.967262 15.967262 0 0 1 8.670006-8.670006L238.425175 77.018556a15.967262 15.967262 0 0 1 12.210259 0l20.880265 8.670007a15.967262 15.967262 0 0 1 8.670006 8.670006l18.423764 44.506033 7.658505 4.407253a248.684682 248.684682 0 0 1 45.517534 0l7.658505-4.407253 18.423764-44.506033a15.967262 15.967262 0 0 1 8.670006-8.670006l20.880265-8.670007a15.967262 15.967262 0 0 1 12.210259 0l68.2763 28.249771a15.967262 15.967262 0 0 1 8.670007 8.670006l8.670006 20.880266a15.967262 15.967262 0 0 1 0 12.210259l-18.423763 44.506032 2.312001 8.525507a250.563184 250.563184 0 0 1 32.223524 32.151273l8.525506 2.312002 44.506033-18.423764a15.967262 15.967262 0 0 1 12.210259 0l20.880265 8.670007a15.967262 15.967262 0 0 1 8.670006 8.670006l28.249771 68.2763a15.967262 15.967262 0 0 1 0 12.210259L635.800466 334.806745a15.967262 15.967262 0 0 1-8.670007 8.670007l-44.506032 18.423763-4.624004 7.586256a247.962182 247.962182 0 0 1 0 45.517533l4.407254 7.658506 44.506032 18.423763a15.967262 15.967262 0 0 1 8.670007 8.670006l8.525506 20.519015a16.762012 16.762012 0 0 1 0 12.49926l-28.249771 68.2763a15.967262 15.967262 0 0 1-8.597756 8.670006l-20.880266 8.670006a15.967262 15.967262 0 0 1-12.210258 0l-44.506033-18.423763-8.525506 2.312002a248.395682 248.395682 0 0 1-32.151274 32.223523l-2.312002 8.525506 18.423764 44.506033a15.967262 15.967262 0 0 1 0 12.210259l-8.670006 20.880265a15.967262 15.967262 0 0 1-8.670007 8.670007l-67.9873 28.24977a15.967262 15.967262 0 0 1-6.141254 1.156001zM405.033797 671.925492l8.670006 3.612503L469.625344 652.273478l3.612503-8.670007-17.990264-43.350031a15.967262 15.967262 0 0 1-0.65025-10.331758l5.129754-18.712764a15.967262 15.967262 0 0 1 5.418754-8.308756 216.750159 216.750159 0 0 0 34.535525-34.607775 15.967262 15.967262 0 0 1 8.308756-5.491004l18.712764-5.129754a16.039512 16.039512 0 0 1 10.331757 0.650251l43.350032 17.990263 8.670006-3.612503L612.391449 476.850349l-3.612503-8.670006-43.350032-17.990263a15.967262 15.967262 0 0 1-7.730756-6.863755L547.944401 426.275312a15.967262 15.967262 0 0 1-2.023001-9.753757 216.750159 216.750159 0 0 0 0-48.841036 15.967262 15.967262 0 0 1 2.023001-9.681507l9.609257-16.834262a15.967262 15.967262 0 0 1 7.730756-6.863755l43.350032-17.990263 3.612502-8.670007-23.192267-56.066041-8.670006-3.612502-43.350032 17.990263a15.967262 15.967262 0 0 1-10.331757 0.65025l-18.712764-5.129753a15.967262 15.967262 0 0 1-8.308756-5.418754 217.400409 217.400409 0 0 0-34.607775-34.535526 15.967262 15.967262 0 0 1-5.491004-8.308756l-5.129754-18.712764a15.967262 15.967262 0 0 1 0.7225-10.115007l17.990264-43.350032-3.612503-8.670006-55.921541-23.264517-8.670006 3.612503-17.990264 43.350031a15.967262 15.967262 0 0 1-6.863755 7.730756L363.345516 173.400127a16.039512 16.039512 0 0 1-9.753757 2.023001 217.328159 217.328159 0 0 0-48.913286 0 15.822762 15.822762 0 0 1-9.681507-2.023001l-16.834262-9.609257a15.967262 15.967262 0 0 1-6.863755-7.730756l-17.990263-43.350031-8.670007-3.612503-56.066041 23.192267-3.612503 8.670006 17.990264 43.350032a15.967262 15.967262 0 0 1 0.65025 10.331758l-5.129754 18.712763a15.967262 15.967262 0 0 1-5.418754 8.308756A216.750159 216.750159 0 0 0 158.950116 256.270938a15.967262 15.967262 0 0 1-8.308756 5.491004l-18.712763 5.129753a15.967262 15.967262 0 0 1-10.331758-0.65025l-43.350032-17.990263-8.670006 3.612502-23.625767 55.921541 3.612502 8.670007 43.350032 17.990263a15.967262 15.967262 0 0 1 7.730756 6.863755l9.609257 16.834262a15.967262 15.967262 0 0 1 2.023001 9.753757 216.750159 216.750159 0 0 0 0 48.913286 15.967262 15.967262 0 0 1-1.950751 9.464757l-9.609257 16.834263a15.895012 15.895012 0 0 1-7.730756 6.791505l-43.350032 17.990263L45.951034 476.850349l23.192267 56.066041 8.670006 3.612503 43.350032-17.990263a15.822762 15.822762 0 0 1 10.331757-0.650251l18.712764 5.129754a15.967262 15.967262 0 0 1 8.308756 5.418754 217.255909 217.255909 0 0 0 34.607775 34.535525 15.967262 15.967262 0 0 1 5.491004 8.308756l5.129754 18.712764a15.967262 15.967262 0 0 1-0.65025 10.331758l-17.990263 43.350031 3.612502 8.670007 56.066041 23.192267 8.670007-3.612503 17.990263-43.350032a15.895012 15.895012 0 0 1 6.791505-7.730755l16.834262-9.609257a15.895012 15.895012 0 0 1 9.753757-2.023002 218.26741 218.26741 0 0 0 48.913286 0 15.750512 15.750512 0 0 1 9.681507 2.023002l16.834263 9.609257a15.967262 15.967262 0 0 1 6.791504 7.730755z" fill="#2A5082" p-id="5698"></path><path d="M970.534961 691.433006l-15.461511-37.425527-20.880266-8.670006-25.721019 10.693007-18.640513-4.985253a158.950116 158.950116 0 0 0-20.085515-20.085515l-4.985254-18.712764 10.693008-25.793268L867.000635 565.717914l-37.425527-15.461511-20.880266 8.670006-10.693008 25.721019-16.762012 9.681507a158.950116 158.950116 0 0 0-28.394271 0l-16.689762-9.681507-10.693008-25.721019-20.880265-8.670006-37.570027 15.461511-8.670007 20.880266 10.693008 25.721018-4.985254 18.640514a158.950116 158.950116 0 0 0-20.085514 20.085515l-18.712764 4.985253L599.675439 645.409723l-20.880265 8.670006L563.550413 691.433006l8.670006 20.880266 25.793269 10.693008 9.681507 16.762012a158.950116 158.950116 0 0 0 0 28.394271l-9.681507 16.689762-25.721019 10.693008L563.550413 816.425598l15.461511 37.425527 20.880265 8.670007 25.721019-10.693008 18.640514 4.985254a158.950116 158.950116 0 0 0 20.085515 20.085514l4.985253 18.712764-10.693008 25.721019 8.670007 20.880265 37.425527 15.461511 20.880265-8.670006 10.693008-25.721019 16.762013-9.681507a158.950116 158.950116 0 0 0 28.39427 0l16.689763 9.681507 10.693007 25.721019 20.880266 8.670006 37.425527-15.461511 8.670006-20.880265-10.693007-25.721019 4.985253-18.640514a158.950116 158.950116 0 0 0 20.085515-20.085514l18.712764-4.985254 25.721019 10.693008 20.880265-8.670007 15.461511-37.425527-8.670006-20.880265-25.793269-10.693008-9.681507-16.762012a158.950116 158.950116 0 0 0 0-28.394271l9.681507-16.689762 25.721019-10.693008z" fill="#FFFFFF" p-id="5699"></path><path d="M829.358357 973.569463a15.967262 15.967262 0 0 1-6.141254-1.228251l-20.880265-8.670006a15.967262 15.967262 0 0 1-8.670007-8.670007l-8.597756-20.735765-7.803006-4.479503a177.01263 177.01263 0 0 1-20.952515 0l-7.803006 4.479503-8.597756 20.735765a15.967262 15.967262 0 0 1-8.597756 8.670007l-20.880266 8.670006a15.967262 15.967262 0 0 1-12.210259 0l-37.425527-15.461511a15.967262 15.967262 0 0 1-8.670006-8.670007l-8.670007-20.880265a15.967262 15.967262 0 0 1 0-12.210259l8.597757-20.735765-2.312002-8.670006a175.495379 175.495379 0 0 1-14.811261-14.450011l-8.670006-2.312002-20.735765 8.597757a15.967262 15.967262 0 0 1-12.210259 0l-20.880266-8.597757a15.967262 15.967262 0 0 1-8.670006-8.670006l-15.461511-37.425527a15.967262 15.967262 0 0 1 0-12.210259l8.670006-20.880266a15.967262 15.967262 0 0 1 8.670006-8.670006l20.735765-8.597756 4.479504-7.803006a175.639879 175.639879 0 0 1 0-20.952515l-4.479504-7.803006-20.735765-8.597756a15.967262 15.967262 0 0 1-8.670006-8.670007l-8.670006-20.880265a15.967262 15.967262 0 0 1 0-12.210259l15.461511-37.425527a15.967262 15.967262 0 0 1 8.670006-8.670007l20.519015-8.525506a16.689762 16.689762 0 0 1 12.499259 0l20.735766 8.597756 8.670006-2.312001a176.651379 176.651379 0 0 1 14.450011-14.811261l2.312001-8.670006-7.947506-21.313766a15.967262 15.967262 0 0 1 0-12.210259l8.670007-20.880265a15.967262 15.967262 0 0 1 8.670006-8.670007l37.425528-15.461511a15.967262 15.967262 0 0 1 12.210258 0l20.880266 8.670006a15.967262 15.967262 0 0 1 8.670006 8.670007l8.597756 20.735765 7.803006 4.479503a172.605376 172.605376 0 0 1 20.952515 0l7.803006-4.479503 8.597757-20.735765a15.967262 15.967262 0 0 1 8.597756-8.670007l20.880265-8.670006a15.967262 15.967262 0 0 1 12.210259 0l37.425527 15.461511a15.967262 15.967262 0 0 1 8.670007 8.670007l8.525506 20.519015a16.762012 16.762012 0 0 1 0 12.499259L881.450646 613.475199l2.312001 8.670007a176.651379 176.651379 0 0 1 14.811261 14.45001l8.670006 2.312002 20.735766-8.597756a15.967262 15.967262 0 0 1 12.210259 0l20.880265 8.670006a15.967262 15.967262 0 0 1 8.670006 8.670006l15.461512 37.425528a15.967262 15.967262 0 0 1 0 12.210259l-8.670007 20.880265a15.967262 15.967262 0 0 1-8.670006 8.670006l-20.735765 8.597757-4.479504 7.803005a178.529881 178.529881 0 0 1 0 20.952516l4.479504 7.803005 20.735765 8.597757a15.967262 15.967262 0 0 1 8.670006 8.670006l8.670007 20.808015a15.967262 15.967262 0 0 1 0 12.210259l-15.389262 37.497778a15.967262 15.967262 0 0 1-8.670006 8.670006l-20.808015 8.670006a15.967262 15.967262 0 0 1-12.210259 0l-20.735765-8.597756-8.670007 2.312002a176.579129 176.579129 0 0 1-14.45001 14.811261l-2.312002 8.670006 8.597756 20.735765a15.967262 15.967262 0 0 1 0 12.210259L881.450646 947.920694a16.689762 16.689762 0 0 1-8.742257 8.959007l-37.425527 15.461511a15.967262 15.967262 0 0 1-5.924505 1.228251z m-8.670006-36.847527l8.670006 3.612503 25.215269-10.404008 3.612503-8.670006-8.092006-19.652015a15.967262 15.967262 0 0 1-0.650251-10.187257l4.985254-18.640514a15.967262 15.967262 0 0 1 5.202004-8.092006 143.777605 143.777605 0 0 0 18.062513-18.062513 15.895012 15.895012 0 0 1 8.164256-5.202004l18.712764-4.985253a15.895012 15.895012 0 0 1 10.187257 0.65025l19.435264 8.236506 8.670007-3.612503 10.404007-25.215268-3.612502-8.670006-19.652015-8.164256a15.967262 15.967262 0 0 1-7.730756-6.719255l-9.681507-16.762013a15.967262 15.967262 0 0 1-2.095251-9.464756 143.199605 143.199605 0 0 0 0-25.576519 15.967262 15.967262 0 0 1 2.095251-9.392507l9.753758-16.473012a15.967262 15.967262 0 0 1 7.730755-6.719255l19.652015-8.164256 3.612502-8.670006-10.404007-25.143019-8.670007-3.612502-19.652014 8.164256a16.039512 16.039512 0 0 1-10.187258 0.65025l-18.134763-4.840754a17.556763 17.556763 0 0 1-8.670006-5.346503A143.849855 143.849855 0 0 0 859.77563 643.025471a15.895012 15.895012 0 0 1-5.202004-8.164256l-4.985254-18.712764a15.967262 15.967262 0 0 1 0.650251-10.187257l8.164256-19.652015-3.612503-8.670006-25.215268-10.404008-8.670007 3.612503-8.164256 19.652014a15.967262 15.967262 0 0 1-6.719255 7.730756l-16.762012 9.681507a15.822762 15.822762 0 0 1-9.464757 2.095252 144.500106 144.500106 0 0 0-25.576519 0 15.750512 15.750512 0 0 1-9.392506-2.095252l-16.689763-9.681507a15.967262 15.967262 0 0 1-6.719255-7.730756L713.108022 570.775418l-8.670006-3.612503L679.150497 578.000423l-3.612502 8.670007 8.164256 19.652014a15.967262 15.967262 0 0 1 0.65025 10.187258l-4.985253 18.640513a15.967262 15.967262 0 0 1-5.057504 7.875256 143.849855 143.849855 0 0 0-18.062513 18.062513 15.967262 15.967262 0 0 1-8.164256 5.202004l-18.712764 4.985254a15.895012 15.895012 0 0 1-10.259508-0.650251L599.675439 662.677485l-8.670006 3.612503-10.476258 25.143018 3.612503 8.670007 19.579764 7.947506a15.967262 15.967262 0 0 1 7.730756 6.719255l9.898257 16.978762a15.967262 15.967262 0 0 1 2.095252 9.464757 143.055105 143.055105 0 0 0 0 25.576519 15.967262 15.967262 0 0 1-2.095252 9.392506l-9.681507 16.689763a15.967262 15.967262 0 0 1-7.730756 6.719255l-19.652014 8.164256-3.612503 8.670006 10.404008 25.215268 8.670006 3.612503 19.652015-8.092006a15.822762 15.822762 0 0 1 10.187257-0.65025l18.640514 4.985253a15.967262 15.967262 0 0 1 8.164256 5.202004 143.416355 143.416355 0 0 0 18.062513 18.062513 15.967262 15.967262 0 0 1 5.202004 8.164256l4.985253 18.712764a15.967262 15.967262 0 0 1-0.65025 10.259508l-8.164256 19.652014 3.612503 8.670006 25.215268 10.404008 8.670006-3.612503 8.164256-19.652014a15.967262 15.967262 0 0 1 6.719255-7.730756l16.762013-9.681507a16.256262 16.256262 0 0 1 9.464757-2.095251 143.849855 143.849855 0 0 0 25.576518 0 15.967262 15.967262 0 0 1 9.392507 2.095251l16.689762 9.681507a15.895012 15.895012 0 0 1 6.719255 7.730756z" fill="#2A5082" p-id="5700"></path><path d="M766.889161 753.921038m-64.948086 26.902378a70.299301 70.299301 0 1 0 129.896171-53.804756 70.299301 70.299301 0 1 0-129.896171 53.804756Z" fill="#FFFFFF" p-id="5701"></path><path d="M767.006562 840.195865a86.266563 86.266563 0 1 1 79.475058-119.284837 86.266563 86.266563 0 0 1-79.475058 119.284837z m0-140.670853a54.47654 54.47654 0 1 0 20.808015 4.190503 54.25979 54.25979 0 0 0-20.952515-4.190503z" fill="#2A5082" p-id="5702"></path><path d="M325.919989 388.994285m-111.770832 0a111.770832 111.770832 0 1 0 223.541664 0 111.770832 111.770832 0 1 0-223.541664 0Z" fill="#FFFFFF" p-id="5703"></path><path d="M325.919989 516.732378a127.738094 127.738094 0 1 1 127.665843-127.738093 127.882594 127.882594 0 0 1-127.665843 127.738093z m0-223.469413a95.80357 95.80357 0 1 0 95.73132 95.73132 95.87582 95.87582 0 0 0-95.73132-95.80357z" fill="#2A5082" p-id="5704"></path></svg>