<?xml version="1.0" standalone="no"?><!DOCTYPE svg PUBLIC "-//W3C//DTD SVG 1.1//EN" "http://www.w3.org/Graphics/SVG/1.1/DTD/svg11.dtd"><svg t="1585570561095" class="icon" viewBox="0 0 1024 1024" version="1.1" xmlns="http://www.w3.org/2000/svg" p-id="1185" xmlns:xlink="http://www.w3.org/1999/xlink" width="200" height="200"><defs><style type="text/css"></style></defs><path d="M896 168H48A40 40 0 0 0 8 208v536a80 80 0 0 0 80 80h848V208a40 40 0 0 0-40-40z" fill="#FFA000" p-id="1186"></path><path d="M896 160H48c-26.464 0-48 21.536-48 48v536C0 792.528 39.472 832 88 832h848a8 8 0 0 0 8-8V208c0-26.464-21.536-48-48-48z m32 656H88A72.08 72.08 0 0 1 16 744V208c0-17.648 14.352-32 32-32h848c17.648 0 32 14.352 32 32v608z" fill="#37474F" p-id="1187"></path><path d="M936.96 8h-832a16 16 0 0 0-16 16v704a16 16 0 0 0 16 16h832a16 16 0 0 0 16-16v-704a16 16 0 0 0-16-16z" fill="#EEEEEE" p-id="1188"></path><path d="M936.976 0h-832c-13.232 0-24 10.768-24 24v704c0 13.232 10.768 24 24 24h832c13.232 0 24-10.768 24-24v-704c0-13.232-10.768-24-24-24z m8 728a8 8 0 0 1-8 8h-832a8 8 0 0 1-8-8v-704a8 8 0 0 1 8-8h832a8 8 0 0 1 8 8v704z" fill="#37474F" p-id="1189"></path><path d="M888 888H620.112c-7.904 0-15.616 2.336-22.192 6.72l-29.04 19.36a16 16 0 0 1-17.744 0L512 888v128l39.12-26.08a16 16 0 0 1 17.744 0l29.04 19.36c6.576 4.384 14.288 6.72 22.192 6.72H888A40 40 0 0 0 928 976v-48a40 40 0 0 0-40-40z" fill="#26C6DA" p-id="1190"></path><path d="M888 880H620.112c-9.504 0-18.72 2.784-26.624 8.064l-29.04 19.36a8 8 0 0 1-8.88 0l-39.12-26.08a8 8 0 0 0-12.448 6.656v128a8 8 0 0 0 12.432 6.656l39.12-26.08a8 8 0 0 1 8.88 0l29.04 19.36c7.904 5.28 17.12 8.064 26.624 8.064H888c26.464 0 48-21.536 48-48v-48c0-26.464-21.536-48-48-48z m32 96c0 17.648-14.352 32-32 32H620.112a31.84 31.84 0 0 1-17.744-5.376l-29.056-19.36a23.968 23.968 0 0 0-26.624 0L520 1001.056v-98.112l26.688 17.792a23.936 23.936 0 0 0 26.624 0l29.04-19.36c5.28-3.52 11.408-5.376 17.76-5.376H888c17.648 0 32 14.352 32 32v48z" fill="#37474F" p-id="1191"></path><path d="M128 928l-32 16v16l32 16h384v-48z" fill="#EEEEEE" p-id="1192"></path><path d="M512 920H128a7.984 7.984 0 0 0-3.584 0.848l-32 16A8 8 0 0 0 88 944v16a8 8 0 0 0 4.416 7.152l32 16c1.12 0.56 2.336 0.848 3.584 0.848h384a8 8 0 0 0 8-8v-48a8 8 0 0 0-8-8z m-8 48H129.888L104 955.056v-6.112l25.888-12.944H504v32zM872 944H640a8 8 0 0 0 0 16h232a8 8 0 0 0 0-16z" fill="#37474F" p-id="1193"></path><path d="M976 248H568l-68.288-68.288a40 40 0 0 0-28.288-11.712H208a40 40 0 0 0-40 40v536a80 80 0 0 1-80 80h848a80 80 0 0 0 80-80V288a40 40 0 0 0-40-40z" fill="#FFCA28" p-id="1194"></path><path d="M976 240H571.312l-65.936-65.936A47.68 47.68 0 0 0 471.424 160H208c-26.464 0-48 21.536-48 48v536c0 39.696-32.304 72-72 72a8 8 0 0 0 0 16h848c48.528 0 88-39.472 88-88V288c0-26.464-21.536-48-48-48z m32 504c0 39.696-32.304 72-72 72H138.544A87.952 87.952 0 0 0 176 744V208c0-17.648 14.352-32 32-32h263.424c8.544 0 16.592 3.328 22.64 9.376l68.288 68.288A8 8 0 0 0 568 256H976c17.648 0 32 14.352 32 32v456z" fill="#37474F" p-id="1195"></path><path d="M984 280a8 8 0 0 0-8 8v456c0 22.048-17.952 40-40 40a8 8 0 0 0 0 16c30.88 0 56-25.12 56-56V288a8 8 0 0 0-8-8z" fill="#FFA000" p-id="1196"></path><path d="M200 200a8 8 0 0 0-8 8v536a102.88 102.88 0 0 1-10.032 44.56 8 8 0 0 0 14.448 6.88A118.848 118.848 0 0 0 208 744V208a8 8 0 0 0-8-8z" fill="#FFE082" p-id="1197"></path><path d="M722.064 566.752l-5.168-2.976c1.984-8.96 3.104-18.224 3.104-27.776s-1.12-18.816-3.104-27.76l5.152-2.976 16.624-14.608a12.832 12.832 0 0 0 2.64-16.016l-21.504-37.248a12.8 12.8 0 0 0-15.184-5.728l-20.976 7.088-5.232 3.024a127.76 127.76 0 0 0-48.016-27.888V408l-4.336-21.712a12.8 12.8 0 0 0-12.544-10.288h-43.008a12.784 12.784 0 0 0-12.544 10.288L553.6 408v5.872a127.76 127.76 0 0 0-48.016 27.888l-5.232-3.024-20.976-7.088a12.8 12.8 0 0 0-15.184 5.728l-21.504 37.248a12.8 12.8 0 0 0 2.64 16.016l16.624 14.608 5.152 2.976c-1.984 8.96-3.104 18.224-3.104 27.776s1.12 18.816 3.104 27.76l-5.168 2.976-16.624 14.608a12.832 12.832 0 0 0-2.64 16.016l21.504 37.248a12.8 12.8 0 0 0 15.184 5.728l20.96-7.088 5.248-3.024a127.76 127.76 0 0 0 48.016 27.888v5.888l4.336 21.712a12.8 12.8 0 0 0 12.544 10.288h43.008c6.096 0 11.36-4.304 12.544-10.288L630.4 664v-5.888a127.76 127.76 0 0 0 48.016-27.888l5.248 3.024 20.96 7.088a12.8 12.8 0 0 0 15.184-5.728l21.504-37.248a12.8 12.8 0 0 0-2.64-16.016l-16.608-14.592zM592 607.104a71.104 71.104 0 1 1 0-142.208 71.104 71.104 0 0 1 0 142.208z" fill="#EEEEEE" p-id="1198"></path><path d="M727.328 560.736a8.16 8.16 0 0 0-1.28-0.928l-0.192-0.112a134.72 134.72 0 0 0 2.144-23.712c0-7.856-0.72-15.84-2.16-23.824l18.128-15.52a20.848 20.848 0 0 0 4.288-26.016l-21.52-37.264a20.864 20.864 0 0 0-24.672-9.296l-22.416 7.744-0.272 0.16a134.304 134.304 0 0 0-41.104-23.872l-4.384-23.376A20.8 20.8 0 0 0 613.504 368h-43.008c-9.888 0-18.448 7.024-20.384 16.72L545.6 408v0.144a134.512 134.512 0 0 0-41.088 23.904l-22.576-7.984a20.832 20.832 0 0 0-24.672 9.312l-21.504 37.248a20.832 20.832 0 0 0 4.288 26.016l17.92 15.536 0.192 0.112c-1.44 7.952-2.16 15.904-2.16 23.712 0 7.856 0.72 15.84 2.16 23.84l-18.128 15.52a20.848 20.848 0 0 0-4.288 26.016l21.52 37.264c4.944 8.544 15.344 12.448 24.672 9.296l22.4-7.744 0.272-0.16a134.688 134.688 0 0 0 41.104 23.872l4.384 23.376A20.848 20.848 0 0 0 570.496 704h43.008c9.888 0 18.448-7.024 20.384-16.72L638.4 664v-0.144a134.512 134.512 0 0 0 41.088-23.904l22.576 7.984a20.832 20.832 0 0 0 24.672-9.312l21.504-37.248a20.832 20.832 0 0 0-4.288-26.016l-16.624-14.624z m7.056 32.64l-21.504 37.248a4.8 4.8 0 0 1-5.696 2.16l-19.536-6.448-5.248-3.024a8.048 8.048 0 0 0-9.408 1.024 118.896 118.896 0 0 1-45.008 26.16 8 8 0 0 0-5.6 7.632l0.16 4.32-4.336 21.696a4.8 4.8 0 0 1-4.704 3.856h-43.008a4.8 4.8 0 0 1-4.704-3.856L561.6 664v-5.888a8 8 0 0 0-5.6-7.632 118.896 118.896 0 0 1-45.008-26.16 8.032 8.032 0 0 0-9.408-1.024l-3.808 2.368-20.976 7.088a4.8 4.8 0 0 1-5.696-2.144L449.6 593.36a4.8 4.8 0 0 1 0.992-6l15.344-13.68 5.168-2.992a8.016 8.016 0 0 0 3.808-8.672c-1.92-8.72-2.912-17.472-2.912-26.016s0.992-17.296 2.928-26.032a8 8 0 0 0-3.824-8.672l-3.872-2.048-16.624-14.624a4.8 4.8 0 0 1-0.992-6l21.504-37.248a4.816 4.816 0 0 1 5.696-2.16l19.536 6.448 5.232 3.024a8.016 8.016 0 0 0 9.408-1.024 118.896 118.896 0 0 1 45.008-26.16 8 8 0 0 0 5.6-7.632l-0.16-4.304 4.336-21.712a4.848 4.848 0 0 1 4.72-3.856h43.008a4.8 4.8 0 0 1 4.704 3.856L622.4 408v5.872a8 8 0 0 0 5.6 7.632 118.896 118.896 0 0 1 45.008 26.16c2.576 2.352 6.4 2.768 9.408 1.024l3.792-2.368 20.976-7.088a4.832 4.832 0 0 1 5.696 2.144l21.504 37.248a4.8 4.8 0 0 1-0.992 6l-15.328 13.696-5.168 2.976a8.016 8.016 0 0 0-3.824 8.672c1.936 8.736 2.928 17.488 2.928 26.032s-0.992 17.296-2.928 26.032a8.032 8.032 0 0 0 3.808 8.672l4.48 2.592 16.032 14.08a4.8 4.8 0 0 1 0.992 6zM592 456.896c-43.632 0-79.104 35.488-79.104 79.104s35.488 79.104 79.104 79.104 79.104-35.488 79.104-79.104-35.472-79.104-79.104-79.104z m0 142.208c-34.8 0-63.104-28.32-63.104-63.104s28.32-63.104 63.104-63.104 63.104 28.32 63.104 63.104-28.304 63.104-63.104 63.104zM952.976 160h-864a8 8 0 0 0 0 16h864a8 8 0 0 0 0-16zM872.976 56h-160a8 8 0 0 0 0 16h160a8 8 0 0 0 0-16zM872.976 104h-160a8 8 0 0 0 0 16h160a8 8 0 0 0 0-16z" fill="#37474F" p-id="1199"></path></svg>