<?xml version="1.0" standalone="no"?><!DOCTYPE svg PUBLIC "-//W3C//DTD SVG 1.1//EN" "http://www.w3.org/Graphics/SVG/1.1/DTD/svg11.dtd"><svg t="1585303045437" class="icon" viewBox="0 0 1024 1024" version="1.1" xmlns="http://www.w3.org/2000/svg" p-id="2462" xmlns:xlink="http://www.w3.org/1999/xlink" width="200" height="200"><defs><style type="text/css"></style></defs><path d="M780 1024H99.6V131.2H780V1024z m-666.4-14h652.4V145.2H113.6v864.8z" fill="#4A555F" p-id="2463"></path><path d="M924.4 892.8h-158V145.2H244V0h680.4v892.8z m-144.4-14h130V14h-652v117.2H780v747.6z" fill="#4A555F" p-id="2464"></path><path d="M796.4 862.4V115.2H274V30h620v832.4z" fill="#E0E0E0" p-id="2465"></path><path d="M194.8 270h234v252.8H194.8z" fill="#E0E0E0" p-id="2466"></path><path d="M493.6 263.2h192.8v14h-192.8zM493.6 344.4h192.8v14h-192.8zM493.6 426h192.8v14h-192.8zM493.6 507.2h192.8v14h-192.8zM194.8 588.4h491.6v14H194.8zM194.8 801.6h491.6v14H194.8zM194.8 876h491.6v14H194.8z" fill="#4A555F" p-id="2467"></path><path d="M194.8 668.4h491.6v65.2H194.8z" fill="#FFD552" p-id="2468"></path><path d="M277.2 485.6h-14V308h59.6c26.4 0 47.6 21.2 47.6 47.6 0 26.4-21.2 47.6-47.6 47.6h-19.6l70.8 82.4-19.6-1.2-77.2-90.4v91.6z m0-96.4h45.6c18.8 0 33.6-15.2 33.6-33.6 0-18.8-15.2-33.6-33.6-33.6H277.2v67.2z" fill="#4A555F" p-id="2469"></path></svg>